<svg xmlns="http://www.w3.org/2000/svg" width="42.147" height="36.946" viewBox="0 0 42.147 36.946">
  <path id="Icon_map-food" data-name="Icon map-food" d="M42.774,12.686,39.319,39.771H27.648l-3.441-27.22H38.455l2.816-9.726,1.6.481-2.7,9.36,2.609.02ZM22.557,28.356s.436-3.512-5.615-3.512H7.3c-6.043,0-5.615,3.512-5.615,3.512H22.557Zm-20.868,7.9S1.262,39.771,7.3,39.771h9.638c6.052,0,5.615-3.512,5.615-3.512H1.689ZM21.652,34.5a2.02,2.02,0,0,0,1.79-2.194,2.017,2.017,0,0,0-1.79-2.2H2.511a2.021,2.021,0,0,0-1.791,2.2A2.023,2.023,0,0,0,2.511,34.5H21.652Z" transform="translate(-0.72 -2.825)" fill="#2b4251"/>
</svg>
