<svg id="icon_ios" data-name="icon ios" xmlns="http://www.w3.org/2000/svg" width="235.52" height="67.141" viewBox="0 0 235.52 67.141">
  <path id="Tracé_1939" data-name="Tracé 1939" d="M222.887,69.441H18.092A15.37,15.37,0,0,1,2.73,54.079V17.662A15.37,15.37,0,0,1,18.092,2.3h204.8A15.37,15.37,0,0,1,238.25,17.662V54.079A15.37,15.37,0,0,1,222.887,69.441ZM18.092,3.814A13.871,13.871,0,0,0,4.244,17.662V54.079A13.871,13.871,0,0,0,18.092,67.927h204.8a13.871,13.871,0,0,0,13.848-13.848V17.662A13.871,13.871,0,0,0,222.887,3.814H18.092Z" transform="translate(-2.73 -2.3)" fill="#fff"/>
  <g id="Groupe_950" data-name="Groupe 950" transform="translate(18.901 11.426)">
    <g id="Groupe_948" data-name="Groupe 948" transform="translate(47.533)">
      <g id="Groupe_946" data-name="Groupe 946" transform="translate(0.384)">
        <path id="Tracé_1940" data-name="Tracé 1940" d="M42.35,8.976a4.656,4.656,0,0,1,2,1.9,5.872,5.872,0,0,1,.707,2.927,5.793,5.793,0,0,1-.707,2.907,4.5,4.5,0,0,1-2,1.877,7,7,0,0,1-3.109.646H35.83V8.29h3.412a6.848,6.848,0,0,1,3.109.666Zm.141,7.974A4.253,4.253,0,0,0,43.6,13.8a4.394,4.394,0,0,0-1.13-3.19,4.294,4.294,0,0,0-3.23-1.151H37.263v8.6h1.978a4.366,4.366,0,0,0,3.23-1.13Z" transform="translate(-35.83 -7.624)" fill="#fff"/>
        <path id="Tracé_1941" data-name="Tracé 1941" d="M43.169,17.707a3.919,3.919,0,0,1-1.534-1.554,4.841,4.841,0,0,1-.565-2.342,4.549,4.549,0,0,1,.565-2.321A4.1,4.1,0,0,1,43.19,9.935,4.469,4.469,0,0,1,45.41,9.39a4.524,4.524,0,0,1,2.221.545,3.841,3.841,0,0,1,1.554,1.554,4.625,4.625,0,0,1,.565,2.342,4.633,4.633,0,0,1-.585,2.342,4.07,4.07,0,0,1-1.595,1.554,4.579,4.579,0,0,1-2.221.545,4.369,4.369,0,0,1-2.18-.545Zm3.634-1.07a2.826,2.826,0,0,0,1.09-1.09,3.429,3.429,0,0,0,.424-1.756,3.641,3.641,0,0,0-.4-1.756,2.487,2.487,0,0,0-1.07-1.07,2.893,2.893,0,0,0-1.433-.343,3.067,3.067,0,0,0-1.433.343,2.679,2.679,0,0,0-1.05,1.07,3.641,3.641,0,0,0-.384,1.756,3.724,3.724,0,0,0,.384,1.776,2.516,2.516,0,0,0,1.03,1.07,2.817,2.817,0,0,0,1.413.343,2.965,2.965,0,0,0,1.433-.363Z" transform="translate(-30.492 -6.503)" fill="#fff"/>
        <path id="Tracé_1942" data-name="Tracé 1942" d="M58.286,9.46,55.6,18.06H54.127l-2.079-6.823L49.969,18.06H48.5L45.79,9.46h1.453l1.978,7.207,2.14-7.207h1.453l2.079,7.227L56.832,9.46h1.413Z" transform="translate(-25.684 -6.432)" fill="#fff"/>
        <path id="Tracé_1943" data-name="Tracé 1943" d="M59.412,10.329a3.671,3.671,0,0,1,.969,2.745v5.067H58.968V13.276a2.845,2.845,0,0,0-.646-1.978,2.253,2.253,0,0,0-1.756-.686,2.386,2.386,0,0,0-1.8.707,2.871,2.871,0,0,0-.666,2.059v4.744H52.67v-8.6H54.1v1.231a2.659,2.659,0,0,1,1.151-1.009,3.58,3.58,0,0,1,1.615-.363A3.507,3.507,0,0,1,59.412,10.329Z" transform="translate(-18.675 -6.513)" fill="#fff"/>
        <path id="Tracé_1944" data-name="Tracé 1944" d="M59.083,7.96V19.567H57.65V7.96Z" transform="translate(-13.602 -7.96)" fill="#fff"/>
        <path id="Tracé_1945" data-name="Tracé 1945" d="M61.4,17.707a3.919,3.919,0,0,1-1.534-1.554,4.841,4.841,0,0,1-.565-2.342,4.549,4.549,0,0,1,.565-2.321A4.1,4.1,0,0,1,61.42,9.935,4.469,4.469,0,0,1,63.64,9.39a4.524,4.524,0,0,1,2.221.545,3.841,3.841,0,0,1,1.554,1.554,4.625,4.625,0,0,1,.565,2.342,4.632,4.632,0,0,1-.585,2.342A4.07,4.07,0,0,1,65.8,17.727a4.579,4.579,0,0,1-2.221.545,4.369,4.369,0,0,1-2.18-.545Zm3.634-1.07a2.826,2.826,0,0,0,1.09-1.09,3.429,3.429,0,0,0,.424-1.756,3.641,3.641,0,0,0-.4-1.756,2.487,2.487,0,0,0-1.07-1.07,2.893,2.893,0,0,0-1.433-.343,3.067,3.067,0,0,0-1.433.343,2.679,2.679,0,0,0-1.05,1.07,3.641,3.641,0,0,0-.384,1.756,3.724,3.724,0,0,0,.384,1.776,2.516,2.516,0,0,0,1.03,1.07,2.817,2.817,0,0,0,1.413.343,2.965,2.965,0,0,0,1.433-.363Z" transform="translate(-11.922 -6.503)" fill="#fff"/>
        <path id="Tracé_1946" data-name="Tracé 1946" d="M64.815,11.479a3.911,3.911,0,0,1,3.553-2.1,3.756,3.756,0,0,1,1.958.484A3.138,3.138,0,0,1,71.557,11.1V9.521h1.433v8.6H71.557V16.526a3.441,3.441,0,0,1-1.272,1.252,3.859,3.859,0,0,1-1.958.484,3.888,3.888,0,0,1-3.533-2.14A4.856,4.856,0,0,1,64.27,13.8a5.043,5.043,0,0,1,.525-2.321Zm6.359.626a2.787,2.787,0,0,0-1.05-1.11,2.818,2.818,0,0,0-1.474-.384,2.8,2.8,0,0,0-2.5,1.474,3.5,3.5,0,0,0-.384,1.7,3.585,3.585,0,0,0,.384,1.716,2.764,2.764,0,0,0,2.5,1.494,2.869,2.869,0,0,0,1.474-.384,2.787,2.787,0,0,0,1.05-1.11,3.5,3.5,0,0,0,.384-1.7A3.5,3.5,0,0,0,71.174,12.105Z" transform="translate(-6.859 -6.513)" fill="#fff"/>
        <path id="Tracé_1947" data-name="Tracé 1947" d="M70.055,12.926a3.913,3.913,0,0,1,3.573-2.1,3.9,3.9,0,0,1,1.857.464A3.317,3.317,0,0,1,76.8,12.5V7.96h1.433V19.567H76.8V17.952a3.587,3.587,0,0,1-1.252,1.272,3.784,3.784,0,0,1-1.938.484,3.977,3.977,0,0,1-2.079-.565,4.1,4.1,0,0,1-1.474-1.575,4.856,4.856,0,0,1-.525-2.321A5.043,5.043,0,0,1,70.055,12.926Zm6.359.626a2.787,2.787,0,0,0-1.05-1.11,2.818,2.818,0,0,0-1.474-.384,2.8,2.8,0,0,0-2.5,1.474,3.5,3.5,0,0,0-.384,1.7,3.585,3.585,0,0,0,.384,1.716,2.764,2.764,0,0,0,2.5,1.494,2.869,2.869,0,0,0,1.474-.384,2.787,2.787,0,0,0,1.05-1.11,3.5,3.5,0,0,0,.384-1.7A3.5,3.5,0,0,0,76.414,13.552Z" transform="translate(-1.5 -7.96)" fill="#fff"/>
        <path id="Tracé_1948" data-name="Tracé 1948" d="M78.949,17.707a3.919,3.919,0,0,1-1.534-1.554,4.841,4.841,0,0,1-.565-2.342,4.548,4.548,0,0,1,.565-2.321A4.1,4.1,0,0,1,78.97,9.935,4.469,4.469,0,0,1,81.19,9.39a4.524,4.524,0,0,1,2.221.545,3.841,3.841,0,0,1,1.554,1.554,4.625,4.625,0,0,1,.565,2.342,4.633,4.633,0,0,1-.585,2.342,4.07,4.07,0,0,1-1.595,1.554,4.579,4.579,0,0,1-2.221.545,4.369,4.369,0,0,1-2.18-.545Zm3.634-1.07a2.826,2.826,0,0,0,1.09-1.09,3.429,3.429,0,0,0,.424-1.756,3.642,3.642,0,0,0-.4-1.756,2.487,2.487,0,0,0-1.07-1.07,2.893,2.893,0,0,0-1.433-.343,3.067,3.067,0,0,0-1.433.343,2.679,2.679,0,0,0-1.05,1.07,3.641,3.641,0,0,0-.384,1.756,3.724,3.724,0,0,0,.384,1.776,2.516,2.516,0,0,0,1.03,1.07,2.817,2.817,0,0,0,1.413.343,2.965,2.965,0,0,0,1.433-.363Z" transform="translate(5.956 -6.503)" fill="#fff"/>
        <path id="Tracé_1949" data-name="Tracé 1949" d="M88.822,10.329a3.671,3.671,0,0,1,.969,2.745v5.067H88.378V13.276a2.845,2.845,0,0,0-.646-1.978,2.253,2.253,0,0,0-1.756-.686,2.386,2.386,0,0,0-1.8.707,2.871,2.871,0,0,0-.666,2.059v4.744H82.08v-8.6h1.433v1.231a2.659,2.659,0,0,1,1.151-1.009,3.58,3.58,0,0,1,1.615-.363A3.507,3.507,0,0,1,88.822,10.329Z" transform="translate(11.284 -6.513)" fill="#fff"/>
        <path id="Tracé_1950" data-name="Tracé 1950" d="M91.284,11.711v5.067a1.2,1.2,0,0,0,.262.888,1.278,1.278,0,0,0,.929.262h1.05v1.211H92.232a2.62,2.62,0,0,1-1.8-.545,2.322,2.322,0,0,1-.585-1.8V11.731H88.74V10.56h1.11V8.4h1.433v2.16h2.241v1.171H91.284Z" transform="translate(18.068 -7.512)" fill="#fff"/>
        <path id="Tracé_1951" data-name="Tracé 1951" d="M98,11.23a2.948,2.948,0,0,1,1.231,1.252,4.145,4.145,0,0,1,.444,2.019v5.067H98.258V14.7a2.845,2.845,0,0,0-.646-1.978,2.253,2.253,0,0,0-1.756-.686,2.386,2.386,0,0,0-1.8.707,2.871,2.871,0,0,0-.666,2.059v4.744H91.96V7.96h1.433V12.2a2.6,2.6,0,0,1,1.171-1.009,4.079,4.079,0,0,1,1.675-.363A3.645,3.645,0,0,1,98,11.25Z" transform="translate(21.349 -7.96)" fill="#fff"/>
        <path id="Tracé_1952" data-name="Tracé 1952" d="M104.987,14.366H98.123a2.786,2.786,0,0,0,.868,1.978,3,3,0,0,0,3.472.283,2.154,2.154,0,0,0,.868-1.151h1.534a3.688,3.688,0,0,1-1.373,2.019,4.113,4.113,0,0,1-2.564.767,4.369,4.369,0,0,1-2.18-.545,3.871,3.871,0,0,1-1.514-1.554,4.834,4.834,0,0,1-.545-2.342,5.069,5.069,0,0,1,.525-2.342,3.823,3.823,0,0,1,1.494-1.554,4.415,4.415,0,0,1,2.221-.545,4.332,4.332,0,0,1,2.16.525,3.776,3.776,0,0,1,1.453,1.474,4.329,4.329,0,0,1,.5,2.12,6.545,6.545,0,0,1-.04.868Zm-1.8-2.564a2.344,2.344,0,0,0-.989-.888,3.11,3.11,0,0,0-1.373-.3,2.6,2.6,0,0,0-1.837.686,2.761,2.761,0,0,0-.868,1.918h5.43a2.677,2.677,0,0,0-.363-1.413Z" transform="translate(26.167 -6.513)" fill="#fff"/>
      </g>
      <g id="Groupe_947" data-name="Groupe 947" transform="translate(0 17.482)">
        <path id="Tracé_1953" data-name="Tracé 1953" d="M49.952,33.969H41.494L40.1,38.007H35.64L43.271,16.75h4.946l7.631,21.257h-4.5l-1.393-4.037ZM48.8,30.558l-3.068-8.882-3.068,8.882Z" transform="translate(-35.64 -16.488)" fill="#fff"/>
        <path id="Tracé_1954" data-name="Tracé 1954" d="M53.6,19.577a6.768,6.768,0,0,1,3.29-.767,7.336,7.336,0,0,1,3.9,1.07,7.457,7.457,0,0,1,2.766,3.028,9.653,9.653,0,0,1,1.009,4.542,10.135,10.135,0,0,1-1.009,4.582,7.63,7.63,0,0,1-2.766,3.089,7.224,7.224,0,0,1-3.9,1.09,6.862,6.862,0,0,1-3.27-.767,6.965,6.965,0,0,1-2.3-1.918V43.963H47.06V19.093h4.259v2.422a6.5,6.5,0,0,1,2.261-1.938Zm6.016,5.228a4.558,4.558,0,0,0-1.635-1.7,4.432,4.432,0,0,0-2.2-.585,4.282,4.282,0,0,0-3.815,2.3,5.5,5.5,0,0,0-.626,2.644,5.284,5.284,0,0,0,.626,2.644A4.471,4.471,0,0,0,53.6,31.83a4.326,4.326,0,0,0,4.381-.02,4.38,4.38,0,0,0,1.635-1.736,5.336,5.336,0,0,0,.626-2.685,5.053,5.053,0,0,0-.626-2.624Z" transform="translate(-24.007 -14.389)" fill="#fff"/>
        <path id="Tracé_1955" data-name="Tracé 1955" d="M63.811,19.577a6.768,6.768,0,0,1,3.29-.767A7.336,7.336,0,0,1,71,19.88a7.457,7.457,0,0,1,2.766,3.028,9.653,9.653,0,0,1,1.009,4.542,10.136,10.136,0,0,1-1.009,4.582A7.629,7.629,0,0,1,71,35.121a7.224,7.224,0,0,1-3.9,1.09,6.862,6.862,0,0,1-3.27-.767,6.965,6.965,0,0,1-2.3-1.918V43.963H57.27V19.093h4.259v2.422a6.5,6.5,0,0,1,2.261-1.938Zm6.016,5.228a4.558,4.558,0,0,0-1.635-1.7,4.432,4.432,0,0,0-2.2-.585,4.282,4.282,0,0,0-3.815,2.3,5.5,5.5,0,0,0-.626,2.644,5.284,5.284,0,0,0,.626,2.644,4.471,4.471,0,0,0,1.635,1.716,4.326,4.326,0,0,0,4.381-.02,4.38,4.38,0,0,0,1.635-1.736,5.336,5.336,0,0,0,.626-2.685,5.053,5.053,0,0,0-.626-2.624Z" transform="translate(-13.606 -14.389)" fill="#fff"/>
        <path id="Tracé_1956" data-name="Tracé 1956" d="M74.676,37.594a6.493,6.493,0,0,1-2.806-2.18,5.779,5.779,0,0,1-1.07-3.371h4.562a2.9,2.9,0,0,0,.929,2.059,3.334,3.334,0,0,0,2.3.767,3.639,3.639,0,0,0,2.342-.707,2.33,2.33,0,0,0,.848-1.877,2.1,2.1,0,0,0-.585-1.554,3.957,3.957,0,0,0-1.433-.949,22.471,22.471,0,0,0-2.382-.767A23.5,23.5,0,0,1,74.03,27.8a5.919,5.919,0,0,1-2.221-1.8,5.1,5.1,0,0,1-.929-3.21,5.83,5.83,0,0,1,.949-3.29,5.942,5.942,0,0,1,2.644-2.14,9.858,9.858,0,0,1,3.9-.747A8.414,8.414,0,0,1,83.7,18.215a5.9,5.9,0,0,1,2.261,4.461H81.277a2.441,2.441,0,0,0-.929-1.817,3.484,3.484,0,0,0-2.3-.707,3.008,3.008,0,0,0-2,.646,2.292,2.292,0,0,0-.747,1.857,1.9,1.9,0,0,0,.565,1.413,4.165,4.165,0,0,0,1.393.908,23.644,23.644,0,0,0,2.362.807A24.853,24.853,0,0,1,82.993,27a6.036,6.036,0,0,1,2.241,1.817A5.08,5.08,0,0,1,86.182,32a6.061,6.061,0,0,1-3.472,5.491,8.7,8.7,0,0,1-4.037.868,10.151,10.151,0,0,1-4-.767Z" transform="translate(0.177 -16.62)" fill="#fff"/>
        <path id="Tracé_1957" data-name="Tracé 1957" d="M85.888,24.521v8.155a1.672,1.672,0,0,0,.4,1.231,1.959,1.959,0,0,0,1.373.384h1.978v3.593H86.958c-3.593,0-5.39-1.736-5.39-5.228V24.541h-2V21.048h2V16.89h4.28v4.158h3.775v3.492H85.848Z" transform="translate(9.111 -16.345)" fill="#fff"/>
        <path id="Tracé_1958" data-name="Tracé 1958" d="M89.718,35.111a7.766,7.766,0,0,1-3.048-3.048A9.093,9.093,0,0,1,85.56,27.5a8.907,8.907,0,0,1,1.151-4.562,7.915,7.915,0,0,1,3.109-3.048,8.934,8.934,0,0,1,4.4-1.07,9.157,9.157,0,0,1,4.4,1.07,7.918,7.918,0,0,1,3.109,3.048,8.9,8.9,0,0,1,1.13,4.562,8.723,8.723,0,0,1-1.171,4.562,8.068,8.068,0,0,1-3.169,3.048,9.113,9.113,0,0,1-4.461,1.07,8.91,8.91,0,0,1-4.381-1.07Zm6.561-3.19a4.146,4.146,0,0,0,1.635-1.7,5.52,5.52,0,0,0,.606-2.745,5.146,5.146,0,0,0-1.252-3.694,4.147,4.147,0,0,0-3.089-1.292,4,4,0,0,0-3.048,1.292A5.139,5.139,0,0,0,89.9,27.48a5.311,5.311,0,0,0,1.191,3.694,3.925,3.925,0,0,0,3.028,1.292A4.392,4.392,0,0,0,96.3,31.9Z" transform="translate(15.213 -14.379)" fill="#fff"/>
        <path id="Tracé_1959" data-name="Tracé 1959" d="M102.089,19.587a6.026,6.026,0,0,1,3.028-.767v4.461h-1.13a4.354,4.354,0,0,0-3.028.949,4.309,4.309,0,0,0-1.009,3.29v8.4H95.69V19.082h4.259v2.6A5.923,5.923,0,0,1,102.089,19.587Z" transform="translate(25.532 -14.379)" fill="#fff"/>
        <path id="Tracé_1960" data-name="Tracé 1960" d="M117.864,28.772H105.55a4.263,4.263,0,0,0,1.272,2.867,3.946,3.946,0,0,0,2.766,1.03,3.484,3.484,0,0,0,3.371-2.039h4.582a7.642,7.642,0,0,1-2.806,4,8.109,8.109,0,0,1-5.067,1.575,8.942,8.942,0,0,1-4.36-1.07,7.54,7.54,0,0,1-3.008-3.048,9.291,9.291,0,0,1-1.07-4.562,9.6,9.6,0,0,1,1.07-4.582,7.49,7.49,0,0,1,2.988-3.048,9.54,9.54,0,0,1,8.7-.04,7.345,7.345,0,0,1,2.947,2.927,8.822,8.822,0,0,1,1.05,4.36,10,10,0,0,1-.121,1.635Zm-4.28-2.867a3.366,3.366,0,0,0-1.191-2.624,4.164,4.164,0,0,0-2.826-.989,3.95,3.95,0,0,0-2.665.949,4.224,4.224,0,0,0-1.332,2.665h7.994Z" transform="translate(31.175 -14.379)" fill="#fff"/>
      </g>
    </g>
    <g id="Groupe_949" data-name="Groupe 949" transform="translate(0 1.03)">
      <path id="Tracé_1961" data-name="Tracé 1961" d="M44.042,16.924c-.626.5-1.272.949-1.837,1.494a8.07,8.07,0,0,0-2.3,7.792,8.574,8.574,0,0,0,4.865,6.117c.222.121.363.182.262.484a21.966,21.966,0,0,1-5.491,8.62,5.059,5.059,0,0,1-5.531,1.09c-.929-.323-1.837-.666-2.766-.929a8.4,8.4,0,0,0-5.208.464,18.334,18.334,0,0,1-2.907.828,4.022,4.022,0,0,1-3.23-.949,17.419,17.419,0,0,1-3.714-4.259,24.2,24.2,0,0,1-3.755-9.346,16.413,16.413,0,0,1-.1-6.036c.787-4.219,2.988-7.348,7.227-8.741a8.608,8.608,0,0,1,5.693.182,30.822,30.822,0,0,0,3.008.989,3.2,3.2,0,0,0,1.514-.061c1.272-.363,2.523-.828,3.8-1.231a9.287,9.287,0,0,1,5.249,0A8.86,8.86,0,0,1,43.78,16.6c.081.121.161.242.222.323Z" transform="translate(-12.093 -3.802)" fill="#fff"/>
      <path id="Tracé_1962" data-name="Tracé 1962" d="M28.5,8.47a7.7,7.7,0,0,1-1.151,4.905,9.008,9.008,0,0,1-4.34,3.876,10.727,10.727,0,0,1-2.12.464c-.424.081-.606-.1-.606-.565a8.5,8.5,0,0,1,3.028-6.48,8.509,8.509,0,0,1,4.845-2.2h.323Z" transform="translate(-3.754 -8.47)" fill="#fff"/>
    </g>
  </g>
</svg>
