<svg id="icon_android" data-name="icon android" xmlns="http://www.w3.org/2000/svg" width="279.487" height="73.662" viewBox="0 0 279.487 73.662">
  <path id="Tracé_1917" data-name="Tracé 1917" d="M259.584,74.991H21.723A20.836,20.836,0,0,1,.91,54.179V22.143A20.823,20.823,0,0,1,21.723,1.33H259.584A20.836,20.836,0,0,1,280.4,22.143V54.179A20.836,20.836,0,0,1,259.584,74.991ZM21.723,2.844a19.324,19.324,0,0,0-19.3,19.3V54.179a19.324,19.324,0,0,0,19.3,19.3H259.584a19.324,19.324,0,0,0,19.3-19.3V22.143a19.324,19.324,0,0,0-19.3-19.3Z" transform="translate(-0.91 -1.33)" fill="#fff"/>
  <g id="Groupe_945" data-name="Groupe 945" transform="translate(24.148 11.244)">
    <g id="Groupe_941" data-name="Groupe 941" transform="translate(0 4.986)">
      <path id="Tracé_1918" data-name="Tracé 1918" d="M13.392,50.484a12.848,12.848,0,0,1-.5-2.443q-.03-17.653,0-35.327a15.072,15.072,0,0,1,.545-2.6L32.691,30.256,13.412,50.463Z" transform="translate(-12.872 -8.616)" fill="#fff"/>
      <path id="Tracé_1919" data-name="Tracé 1919" d="M33.034,21.01l6.379,6.662c-2.261,1.312-4.441,2.564-6.621,3.835-4.986,2.887-9.952,5.794-14.938,8.68a4,4,0,0,1-3.613.525l18.794-19.7Z" transform="translate(-11.479 2.487)" fill="#fff"/>
      <path id="Tracé_1920" data-name="Tracé 1920" d="M14.652,9.37a9.925,9.925,0,0,1,2.5.666c7.267,4.138,14.494,8.337,21.923,12.617l-6.2,6.541L14.41,9.875l.222-.484Z" transform="translate(-11.306 -9.37)" fill="#fff"/>
      <path id="Tracé_1921" data-name="Tracé 1921" d="M31.284,30.842,24.42,23.655l6.7-7.045c2.241,1.312,4.461,2.483,6.561,3.876a3.92,3.92,0,0,1-.061,6.682c-.3.2-.606.384-.929.565-1.8,1.03-3.573,2.059-5.43,3.129Z" transform="translate(-1.109 -1.995)" fill="#fff"/>
    </g>
    <g id="Groupe_944" data-name="Groupe 944" transform="translate(48.928 0)">
      <g id="Groupe_942" data-name="Groupe 942">
        <path id="Tracé_1922" data-name="Tracé 1922" d="M48.616,11.76A4.579,4.579,0,0,0,46.9,9.822a4.847,4.847,0,0,0-2.624-.686,5.162,5.162,0,0,0-2.685.686,4.876,4.876,0,0,0-1.877,1.958,6.053,6.053,0,0,0-.686,2.947,6.053,6.053,0,0,0,.686,2.947,5.012,5.012,0,0,0,1.877,1.958,5.265,5.265,0,0,0,2.685.686,4.851,4.851,0,0,0,3.432-1.252A5.064,5.064,0,0,0,49.283,15.7H43.59V14.182h7.671v1.433a7.1,7.1,0,0,1-1.11,3.23,7.032,7.032,0,0,1-2.483,2.321,6.952,6.952,0,0,1-3.412.848,7.086,7.086,0,0,1-3.613-.929A6.76,6.76,0,0,1,38.059,18.5a7.5,7.5,0,0,1-.949-3.735,7.574,7.574,0,0,1,.949-3.755,6.813,6.813,0,0,1,2.584-2.6,7.138,7.138,0,0,1,3.613-.929,7.3,7.3,0,0,1,4.017,1.13,6.4,6.4,0,0,1,2.544,3.169H48.6Z" transform="translate(-37.11 -6.309)" fill="#fff"/>
        <path id="Tracé_1923" data-name="Tracé 1923" d="M55.86,15.46H46.9a3.512,3.512,0,0,0,3.634,3.512,3.4,3.4,0,0,0,2.019-.565,2.865,2.865,0,0,0,1.13-1.494h2a4.875,4.875,0,0,1-1.8,2.624,5.5,5.5,0,0,1-3.351,1.009,5.723,5.723,0,0,1-2.846-.707A5.065,5.065,0,0,1,45.707,17.8,6.236,6.236,0,0,1,45,14.753a6.651,6.651,0,0,1,.686-3.048,4.842,4.842,0,0,1,1.958-2.019,5.879,5.879,0,0,1,2.887-.707,5.8,5.8,0,0,1,2.826.686,4.816,4.816,0,0,1,1.9,1.918,5.638,5.638,0,0,1,.666,2.745,7.331,7.331,0,0,1-.061,1.13Zm-2.342-3.351a3.222,3.222,0,0,0-1.272-1.171,4.05,4.05,0,0,0-1.8-.4,3.423,3.423,0,0,0-2.4.908,3.684,3.684,0,0,0-1.13,2.5H54a3.6,3.6,0,0,0-.464-1.837Z" transform="translate(-29.073 -4.781)" fill="#fff"/>
        <path id="Tracé_1924" data-name="Tracé 1924" d="M54.421,12.03v6.6a1.6,1.6,0,0,0,.343,1.151,1.736,1.736,0,0,0,1.211.343h1.373V21.7H55.672a3.453,3.453,0,0,1-2.342-.707,3.023,3.023,0,0,1-.767-2.362v-6.6H51.11V10.5h1.453V7.67h1.857V10.5h2.927V12.03H54.421Z" transform="translate(-22.848 -6.116)" fill="#fff"/>
        <path id="Tracé_1925" data-name="Tracé 1925" d="M58.233,9.08a1.232,1.232,0,0,1-.363-.908,1.265,1.265,0,0,1,.363-.908,1.232,1.232,0,0,1,.908-.363,1.143,1.143,0,0,1,.868.363,1.232,1.232,0,0,1,.363.908,1.265,1.265,0,0,1-.363.908,1.1,1.1,0,0,1-.868.363A1.3,1.3,0,0,1,58.233,9.08Zm1.8,2.18v11.2H58.173V11.26Z" transform="translate(-15.962 -6.9)" fill="#fff"/>
        <path id="Tracé_1926" data-name="Tracé 1926" d="M63.311,12.03v6.6a1.6,1.6,0,0,0,.343,1.151,1.736,1.736,0,0,0,1.211.343h1.373V21.7H64.562a3.453,3.453,0,0,1-2.342-.707,3.023,3.023,0,0,1-.767-2.362v-6.6H60V10.5h1.453V7.67h1.857V10.5h2.927V12.03H63.311Z" transform="translate(-13.792 -6.116)" fill="#fff"/>
        <path id="Tracé_1927" data-name="Tracé 1927" d="M69.285,19.83a5.113,5.113,0,0,1-2-2.039,6.244,6.244,0,0,1-.727-3.048,5.911,5.911,0,0,1,.747-3.028A5.031,5.031,0,0,1,69.346,9.7a6.25,6.25,0,0,1,5.773,0,5.292,5.292,0,0,1,2.039,2.019,5.987,5.987,0,0,1,.747,3.048,6,6,0,0,1-.767,3.048,5.31,5.31,0,0,1-2.079,2.039,5.849,5.849,0,0,1-2.907.707,5.778,5.778,0,0,1-2.846-.707Zm4.744-1.393a3.655,3.655,0,0,0,1.413-1.413,4.489,4.489,0,0,0,.545-2.281,4.7,4.7,0,0,0-.525-2.281,3.551,3.551,0,0,0-1.393-1.393,3.9,3.9,0,0,0-1.857-.464,3.978,3.978,0,0,0-1.877.464,3.224,3.224,0,0,0-1.353,1.393,4.7,4.7,0,0,0-.5,2.281,4.924,4.924,0,0,0,.5,2.321,3.42,3.42,0,0,0,1.332,1.393,3.819,3.819,0,0,0,1.837.464,4.038,4.038,0,0,0,1.877-.464Z" transform="translate(-7.11 -4.771)" fill="#fff"/>
        <path id="Tracé_1928" data-name="Tracé 1928" d="M82.171,10.191a4.768,4.768,0,0,1,1.272,3.573v6.6H81.606V14.027a3.571,3.571,0,0,0-.848-2.564,3.421,3.421,0,0,0-4.643.04,3.738,3.738,0,0,0-.868,2.685v6.2H73.39V9.182h1.857v1.595a3.746,3.746,0,0,1,1.514-1.332,5.034,5.034,0,0,1,5.41.767Z" transform="translate(-0.152 -4.781)" fill="#fff"/>
      </g>
      <g id="Groupe_943" data-name="Groupe 943" transform="translate(0.182 23.215)">
        <path id="Tracé_1929" data-name="Tracé 1929" d="M53.026,25.562a4.988,4.988,0,0,0-2-2.039,6.11,6.11,0,0,0-2.988-.707,6.615,6.615,0,0,0-3.351.848,5.812,5.812,0,0,0-2.281,2.443,7.8,7.8,0,0,0-.828,3.654,8.057,8.057,0,0,0,.828,3.714A5.971,5.971,0,0,0,44.73,35.9a6.86,6.86,0,0,0,3.472.848,5.965,5.965,0,0,0,3.977-1.292,6.2,6.2,0,0,0,2.039-3.593H46.93V28.61H58.416v3.714a9.969,9.969,0,0,1-1.817,4.1,10.373,10.373,0,0,1-8.539,4.158,11.167,11.167,0,0,1-5.551-1.393,10.071,10.071,0,0,1-3.9-3.856A10.965,10.965,0,0,1,37.2,29.74a11.093,11.093,0,0,1,1.413-5.612,9.936,9.936,0,0,1,3.9-3.856,11.787,11.787,0,0,1,11.749.363,8.994,8.994,0,0,1,3.654,4.905H53.026Z" transform="translate(-37.2 -17.911)" fill="#fff"/>
        <path id="Tracé_1930" data-name="Tracé 1930" d="M52.918,37.361a7.766,7.766,0,0,1-3.048-3.048,9.093,9.093,0,0,1-1.11-4.562,8.907,8.907,0,0,1,1.151-4.562,7.915,7.915,0,0,1,3.109-3.048,8.934,8.934,0,0,1,4.4-1.07,9.157,9.157,0,0,1,4.4,1.07,7.918,7.918,0,0,1,3.109,3.048,8.9,8.9,0,0,1,1.13,4.562,8.723,8.723,0,0,1-1.171,4.562,8.068,8.068,0,0,1-3.169,3.048,9.113,9.113,0,0,1-4.461,1.07,8.91,8.91,0,0,1-4.381-1.07Zm6.561-3.19a4.146,4.146,0,0,0,1.635-1.7,5.52,5.52,0,0,0,.606-2.745,5.146,5.146,0,0,0-1.252-3.694,4.147,4.147,0,0,0-3.089-1.292,4,4,0,0,0-3.048,1.292A5.139,5.139,0,0,0,53.1,29.73a5.311,5.311,0,0,0,1.191,3.694,3.925,3.925,0,0,0,3.028,1.292,4.392,4.392,0,0,0,2.18-.565Z" transform="translate(-25.424 -15.68)" fill="#fff"/>
        <path id="Tracé_1931" data-name="Tracé 1931" d="M62.528,37.361a7.766,7.766,0,0,1-3.048-3.048,9.093,9.093,0,0,1-1.11-4.562,8.907,8.907,0,0,1,1.151-4.562,7.915,7.915,0,0,1,3.109-3.048,8.934,8.934,0,0,1,4.4-1.07,9.157,9.157,0,0,1,4.4,1.07,7.918,7.918,0,0,1,3.109,3.048,8.9,8.9,0,0,1,1.13,4.562A8.723,8.723,0,0,1,74.5,34.313a8.068,8.068,0,0,1-3.169,3.048,9.113,9.113,0,0,1-4.461,1.07,8.91,8.91,0,0,1-4.381-1.07Zm6.561-3.19a4.146,4.146,0,0,0,1.635-1.7,5.521,5.521,0,0,0,.606-2.745,5.146,5.146,0,0,0-1.252-3.694,4.147,4.147,0,0,0-3.089-1.292,4,4,0,0,0-3.048,1.292A5.139,5.139,0,0,0,62.71,29.73,5.311,5.311,0,0,0,63.9,33.424a3.925,3.925,0,0,0,3.028,1.292,4.392,4.392,0,0,0,2.18-.565Z" transform="translate(-15.635 -15.68)" fill="#fff"/>
        <path id="Tracé_1932" data-name="Tracé 1932" d="M78.972,21.807a6.021,6.021,0,0,1,2.241,1.938v-2.4h4.28V38.3a9.1,9.1,0,0,1-.949,4.179,7.041,7.041,0,0,1-2.826,2.927,8.976,8.976,0,0,1-4.562,1.07A9.732,9.732,0,0,1,71.281,44.8a6.2,6.2,0,0,1-2.6-4.562H72.9a3.1,3.1,0,0,0,1.453,1.837,4.965,4.965,0,0,0,2.685.686,4.133,4.133,0,0,0,3.008-1.11A4.467,4.467,0,0,0,81.193,38.3V35.7a6.393,6.393,0,0,1-2.261,1.978,6.778,6.778,0,0,1-3.29.787,7.324,7.324,0,0,1-3.9-1.09,7.674,7.674,0,0,1-2.786-3.089A9.821,9.821,0,0,1,67.95,29.7a9.758,9.758,0,0,1,1.009-4.522,7.645,7.645,0,0,1,2.766-3.048,7.387,7.387,0,0,1,3.9-1.07,6.963,6.963,0,0,1,3.311.747ZM80.607,27.1a4.143,4.143,0,0,0-1.635-1.7,4.428,4.428,0,0,0-4.4,0,4.412,4.412,0,0,0-1.635,1.7,5.206,5.206,0,0,0-.626,2.624,5.416,5.416,0,0,0,.626,2.665,4.593,4.593,0,0,0,1.635,1.756,4.233,4.233,0,0,0,2.18.606,4.564,4.564,0,0,0,2.221-.585,4.4,4.4,0,0,0,1.635-1.7,6.165,6.165,0,0,0,0-5.329Z" transform="translate(-5.876 -15.69)" fill="#fff"/>
        <path id="Tracé_1933" data-name="Tracé 1933" d="M82.969,18.4V40.888H78.71V18.4h4.259Z" transform="translate(5.085 -18.4)" fill="#fff"/>
        <path id="Tracé_1934" data-name="Tracé 1934" d="M98.984,31.022H86.67a4.263,4.263,0,0,0,1.272,2.867,3.946,3.946,0,0,0,2.766,1.03,3.484,3.484,0,0,0,3.371-2.039h4.582a7.642,7.642,0,0,1-2.806,4,8.109,8.109,0,0,1-5.067,1.575,8.943,8.943,0,0,1-4.36-1.07,7.54,7.54,0,0,1-3.008-3.048,9.291,9.291,0,0,1-1.07-4.562,9.6,9.6,0,0,1,1.07-4.582,7.49,7.49,0,0,1,2.988-3.048,9.54,9.54,0,0,1,8.7-.04,7.345,7.345,0,0,1,2.947,2.927,8.822,8.822,0,0,1,1.05,4.36A10.006,10.006,0,0,1,98.984,31.022ZM94.7,28.156a3.366,3.366,0,0,0-1.191-2.624,4.164,4.164,0,0,0-2.826-.989,3.95,3.95,0,0,0-2.665.949,4.224,4.224,0,0,0-1.332,2.665h7.994Z" transform="translate(8.793 -15.68)" fill="#fff"/>
        <path id="Tracé_1935" data-name="Tracé 1935" d="M110.446,28.79a5.941,5.941,0,0,1-2.523,2.4,9.222,9.222,0,0,1-4.34.908h-3.553v8.155H95.77V19.04h7.812a9.5,9.5,0,0,1,4.2.848,6.023,6.023,0,0,1,2.6,2.342,6.843,6.843,0,0,1,.061,6.561Zm-4.421-.929a2.983,2.983,0,0,0,.848-2.261c0-2.059-1.151-3.109-3.472-3.109h-3.371v6.177H103.4a3.628,3.628,0,0,0,2.6-.807Z" transform="translate(22.464 -17.748)" fill="#fff"/>
        <path id="Tracé_1936" data-name="Tracé 1936" d="M109.189,18.4V40.888H104.93V18.4h4.259Z" transform="translate(31.795 -18.4)" fill="#fff"/>
        <path id="Tracé_1937" data-name="Tracé 1937" d="M109.6,25.178a7.645,7.645,0,0,1,2.766-3.048,7.387,7.387,0,0,1,3.9-1.07,6.83,6.83,0,0,1,3.29.767,6.614,6.614,0,0,1,2.261,1.918v-2.4h4.28V38.178h-4.28V35.716a6.156,6.156,0,0,1-2.261,1.958,6.874,6.874,0,0,1-3.331.767,7.205,7.205,0,0,1-3.876-1.09,7.63,7.63,0,0,1-2.766-3.089,9.821,9.821,0,0,1-1.009-4.582,9.758,9.758,0,0,1,1.009-4.522Zm11.628,1.938a4.143,4.143,0,0,0-1.635-1.7,4.428,4.428,0,0,0-4.4,0,4.412,4.412,0,0,0-1.635,1.7,5.206,5.206,0,0,0-.626,2.624,5.416,5.416,0,0,0,.626,2.665,4.593,4.593,0,0,0,1.635,1.756,4.233,4.233,0,0,0,2.18.606,4.564,4.564,0,0,0,2.221-.585,4.405,4.405,0,0,0,1.635-1.7,6.165,6.165,0,0,0,0-5.329Z" transform="translate(35.503 -15.69)" fill="#fff"/>
        <path id="Tracé_1938" data-name="Tracé 1938" d="M136.417,21.2,125.98,46.01h-4.522l3.654-8.4L118.37,21.2h4.764l4.34,11.769,4.4-11.769H136.4Z" transform="translate(45.486 -15.548)" fill="#fff"/>
      </g>
    </g>
  </g>
</svg>
