<svg xmlns="http://www.w3.org/2000/svg" width="239.97" height="59.364" viewBox="0 0 239.97 59.364">
  <g id="Logo_Footer" data-name="Logo Footer" transform="translate(-23.49 -65.85)">
    <path id="Tracé_1" data-name="Tracé 1" d="M51.387,65.85a27.9,27.9,0,1,0,13.58,52.271l.207-.113.205-.113a27.878,27.878,0,0,0,2.612-1.72l.169-.126-5.05-5.687-.174.111a20.2,20.2,0,0,1-5.073,2.545c-.085.029-.17.058-.256.085s-.173.055-.261.081A20.32,20.32,0,0,1,36.956,79.438l-3.625-4.091,4.72,3.057a20.324,20.324,0,1,1,27.133,30.267l5.027,5.661A27.894,27.894,0,0,0,51.387,65.85ZM37.724,78.7,35.7,77.389l1.553,1.749C37.41,78.988,37.566,78.846,37.724,78.7Z" fill="#fff"/>
    <path id="Tracé_2" data-name="Tracé 2" d="M162.983,207.9l-11.134-7.212-7.566-4.9-15.622-10.119,5.363-2.072,5.494-2.122,1.176-.454-16.915-19.051-2.589-2.915,3.37,2.183,30.952,20.049L145.384,185.2l-.729.281-1.176.455,6.307,7.1,5.05,5.687Z" transform="translate(-86.674 -82.69)" fill="#fff"/>
    <path id="Tracé_3" data-name="Tracé 3" d="M576.555,239.816q0,6.458-2.852,9.322T564.392,252q-6.2,0-9.181-2.982t-3.011-9.2V221.66a.63.63,0,0,1,.631-.63h5.032a.63.63,0,0,1,.631.63v18.369a7.052,7.052,0,0,0,1.461,4.853,5.669,5.669,0,0,0,4.431,1.626q3.16,0,4.5-1.5t1.346-4.983V221.66a.63.63,0,0,1,.63-.63h5.057a.63.63,0,0,1,.63.63Z" transform="translate(-469.04 -137.666)" fill="#fff"/>
    <path id="Tracé_4" data-name="Tracé 4" d="M818.08,251.372V221.66a.63.63,0,0,1,.63-.63h5.033a.63.63,0,0,1,.63.63v29.712a.63.63,0,0,1-.63.63H818.71A.63.63,0,0,1,818.08,251.372Z" transform="translate(-704.913 -137.667)" fill="#fff"/>
    <path id="Tracé_5" data-name="Tracé 5" d="M940.117,234.142a.631.631,0,0,1,.624.727,12.11,12.11,0,0,1-4,7.582,13.1,13.1,0,0,1-8.945,3.075,12.815,12.815,0,0,1-10.112-4.242q-3.749-4.242-3.748-11.479,0-7.4,3.748-11.737A12.686,12.686,0,0,1,927.8,213.73a13.519,13.519,0,0,1,8.887,2.911,11.4,11.4,0,0,1,4.038,7.12.631.631,0,0,1-.621.74h-5.053a.632.632,0,0,1-.617-.508,5.578,5.578,0,0,0-2.015-3.358,7.081,7.081,0,0,0-4.573-1.438,6.359,6.359,0,0,0-5.493,2.793q-1.98,2.793-1.974,7.766,0,4.834,1.979,7.562a6.428,6.428,0,0,0,5.488,2.738,6.631,6.631,0,0,0,4.573-1.591,6.356,6.356,0,0,0,2.023-3.8.629.629,0,0,1,.621-.523Z" transform="translate(-789.955 -131.19)" fill="#fff"/>
    <path id="Tracé_6" data-name="Tracé 6" d="M1198.82,251.372V221.66a.63.63,0,0,1,.631-.63h5.032a.63.63,0,0,1,.631.63v10.252a.63.63,0,0,0,1.093.429l10.27-11.109a.63.63,0,0,1,.463-.2h6.33a.631.631,0,0,1,.465,1.056L1213,233.8a.63.63,0,0,0-.046.79l11.827,16.4a.631.631,0,0,1-.511,1H1217.6a.63.63,0,0,1-.529-.289l-8.464-13.141a.63.63,0,0,0-.981-.1l-2.332,2.386a.629.629,0,0,0-.179.44v10.074a.63.63,0,0,1-.631.63h-5.032A.63.63,0,0,1,1198.82,251.372Z" transform="translate(-1042.683 -137.666)" fill="#fff"/>
    <path id="Tracé_7" data-name="Tracé 7" d="M1468.643,223.587a.659.659,0,0,1-.622-.533,4.428,4.428,0,0,0-1.819-2.9,7.382,7.382,0,0,0-4.478-1.261,5.957,5.957,0,0,0-3.759,1.06,3.536,3.536,0,0,0-1.354,2.947,2.312,2.312,0,0,0,1.414,2.1,28.992,28.992,0,0,0,5.916,1.744q6.6,1.467,8.815,3.395,2.215,1.91,2.217,6.128a7.977,7.977,0,0,1-3.347,6.742q-3.348,2.5-9.051,2.5-5.729,0-8.946-2.651a9.578,9.578,0,0,1-3.386-6.843.633.633,0,0,1,.629-.688h4.8a.649.649,0,0,1,.625.564,4.521,4.521,0,0,0,1.7,3.14,7.224,7.224,0,0,0,4.573,1.3,9.488,9.488,0,0,0,4.714-.978,2.99,2.99,0,0,0,1.693-2.7,2.775,2.775,0,0,0-1.227-2.5,17.035,17.035,0,0,0-5.085-1.674q-7.165-1.6-9.593-3.466-2.4-1.838-2.4-5.756a8.5,8.5,0,0,1,3.182-6.965q3.183-2.582,8.6-2.581a12.34,12.34,0,0,1,8.239,2.675,9.866,9.866,0,0,1,3.449,6.487.632.632,0,0,1-.625.714Z" transform="translate(-1265.727 -131.173)" fill="#fff"/>
    <path id="Tracé_8" data-name="Tracé 8" d="M1697.712,251.372V227.008a.629.629,0,0,0-.631-.63h-7.862a.63.63,0,0,1-.63-.631V221.66a.63.63,0,0,1,.63-.63h23.249a.63.63,0,0,1,.63.63v4.09a.63.63,0,0,1-.63.631h-7.838a.63.63,0,0,0-.631.63v24.362a.63.63,0,0,1-.63.63h-5.028A.63.63,0,0,1,1697.712,251.372Z" transform="translate(-1477.178 -137.667)" fill="#fff"/>
    <path id="Tracé_9" data-name="Tracé 9" d="M1930.171,239.7l-9.908-17.728a.631.631,0,0,1,.55-.938h6.025a.631.631,0,0,1,.564.358l5.514,11.5a.63.63,0,0,0,1.143-.015l5.146-11.47a.629.629,0,0,1,.575-.372h5.684a.63.63,0,0,1,.556.927l-9.4,17.626a.619.619,0,0,0-.075.3v11.492a.629.629,0,0,1-.631.63h-5.029a.63.63,0,0,1-.631-.63V240A.63.63,0,0,0,1930.171,239.7Z" transform="translate(-1682.634 -137.666)" fill="#fff"/>
  </g>
</svg>
