<svg xmlns="http://www.w3.org/2000/svg" xmlns:xlink="http://www.w3.org/1999/xlink" width="33.505" height="33.521" viewBox="0 0 33.505 33.521">
  <defs>
    <linearGradient id="linear-gradient" x1="1" y1="0.528" x2="0" y2="0.5" gradientUnits="objectBoundingBox">
      <stop offset="0" stop-color="#00a97c"/>
      <stop offset="1" stop-color="#007386" stop-opacity="0.631"/>
    </linearGradient>
  </defs>
  <g id="icon_phone" data-name="icon phone" transform="translate(-2910 -5591)">
    <path id="Tracé_365" data-name="Tracé 365" d="M17.114,24.349c.086-.5.144-1.008.259-1.5A3.739,3.739,0,0,1,18.439,21c.972-.972,1.958-1.936,2.915-2.922a3.353,3.353,0,0,1,4.787.007c1.5,1.476,2.987,2.973,4.47,4.47a3.13,3.13,0,0,1,.022,4.6,3.164,3.164,0,0,1-.965.59,3.377,3.377,0,0,0-2.044,1.85,2.73,2.73,0,0,0-.13,1.821,11.332,11.332,0,0,0,2.786,4.743,14.756,14.756,0,0,0,4.506,3.476,4.173,4.173,0,0,0,2.5.561,3.048,3.048,0,0,0,2.44-1.742c.065-.137.122-.281.18-.417a3.085,3.085,0,0,1,4.916-1.224c.828.727,1.576,1.533,2.354,2.318.907.914,1.85,1.792,2.7,2.757A3.218,3.218,0,0,1,50,45.8a5.591,5.591,0,0,1-.569.669c-.885.893-1.785,1.763-2.656,2.67a4.456,4.456,0,0,1-2.807,1.4.651.651,0,0,0-.151.058h-1.5c-.6-.115-1.2-.209-1.785-.36a23.416,23.416,0,0,1-6.788-3.145,43.027,43.027,0,0,1-7.075-5.744,39.428,39.428,0,0,1-7.709-10.336,17.186,17.186,0,0,1-1.612-4.607c-.1-.554-.166-1.116-.245-1.67A3.507,3.507,0,0,0,17.114,24.349Z" transform="translate(2892.9 5573.923)" fill="url(#linear-gradient)"/>
  </g>
</svg>
