<svg xmlns="http://www.w3.org/2000/svg" width="34.528" height="26.155" viewBox="0 0 34.528 26.155">
  <path id="Icon_map-clothing-store" data-name="Icon map-clothing-store" d="M36.308,10.9a.826.826,0,0,1-.146.662l-4.146,6.169a.922.922,0,0,1-.747.369,2.145,2.145,0,0,1-.376-.038L27.57,17.25V31.865a.739.739,0,0,1-.769.769H10.646a.739.739,0,0,1-.769-.769V17.25l-2.985.823a.7.7,0,0,1-.838-.331L1.938,11.588a.775.775,0,0,1-.108-.646.75.75,0,0,1,.423-.492L10.646,6.48h3.846a.735.735,0,0,1,.769.769c0,1.585,2.223,2.708,3.808,2.708s3.885-1.115,3.885-2.708a.739.739,0,0,1,.769-.769H27.57l8.308,3.892a.828.828,0,0,1,.431.531Z" transform="translate(-1.802 -6.48)" fill="#2b4251"/>
</svg>
