<svg id="Star_Lorenza_Robel" data-name="Star Lorenza Robel" xmlns="http://www.w3.org/2000/svg" width="77.121" height="13.132" viewBox="0 0 77.121 13.132">
  <g id="Groupe_894" data-name="Groupe 894" transform="translate(0 0)">
    <path id="Icon_awesome-star" data-name="Icon awesome-star" d="M7.565.456l-1.675,3.4L2.144,4.4A.821.821,0,0,0,1.69,5.8L4.4,8.439,3.76,12.17a.82.82,0,0,0,1.19.864L8.3,11.273l3.352,1.762a.821.821,0,0,0,1.19-.864L12.2,8.439,14.913,5.8a.821.821,0,0,0-.454-1.4l-3.747-.546L9.037.456a.821.821,0,0,0-1.472,0Z" transform="translate(-1.441 0.001)" fill="#ffc948"/>
    <path id="Icon_awesome-star-2" data-name="Icon awesome-star" d="M7.565.456l-1.675,3.4L2.144,4.4A.821.821,0,0,0,1.69,5.8L4.4,8.439,3.76,12.17a.82.82,0,0,0,1.19.864L8.3,11.273l3.352,1.762a.821.821,0,0,0,1.19-.864L12.2,8.439,14.913,5.8a.821.821,0,0,0-.454-1.4l-3.747-.546L9.037.456a.821.821,0,0,0-1.472,0Z" transform="translate(14.409 0.001)" fill="#ffc948"/>
    <path id="Icon_awesome-star-3" data-name="Icon awesome-star" d="M7.565.456l-1.675,3.4L2.144,4.4A.821.821,0,0,0,1.69,5.8L4.4,8.439,3.76,12.17a.82.82,0,0,0,1.19.864L8.3,11.273l3.352,1.762a.821.821,0,0,0,1.19-.864L12.2,8.439,14.913,5.8a.821.821,0,0,0-.454-1.4l-3.747-.546L9.037.456a.821.821,0,0,0-1.472,0Z" transform="translate(30.259 0.001)" fill="#ffc948"/>
    <path id="Icon_awesome-star-4" data-name="Icon awesome-star" d="M7.565.456l-1.675,3.4L2.144,4.4A.821.821,0,0,0,1.69,5.8L4.4,8.439,3.76,12.17a.82.82,0,0,0,1.19.864L8.3,11.273l3.352,1.762a.821.821,0,0,0,1.19-.864L12.2,8.439,14.913,5.8a.821.821,0,0,0-.454-1.4l-3.747-.546L9.037.456a.821.821,0,0,0-1.472,0Z" transform="translate(46.109 0.001)" fill="#ffc948"/>
    <path id="Icon_awesome-star-5" data-name="Icon awesome-star" d="M7.565.456l-1.675,3.4L2.144,4.4A.821.821,0,0,0,1.69,5.8L4.4,8.439,3.76,12.17a.82.82,0,0,0,1.19.864L8.3,11.273l3.352,1.762a.821.821,0,0,0,1.19-.864L12.2,8.439,14.913,5.8a.821.821,0,0,0-.454-1.4l-3.747-.546L9.037.456a.821.821,0,0,0-1.472,0Z" transform="translate(61.96 0.001)" fill="#ffc948"/>
  </g>
</svg>
