<svg id="Layer_1" data-name="Layer 1" xmlns="http://www.w3.org/2000/svg" viewBox="0 0 2173.28 657.7"><defs><style>.cls-1{fill:#1a5f7a;isolation:isolate;}.cls-2{fill:#cbd12e;}</style></defs><path class="cls-1" d="M270.67,65.85A247.18,247.18,0,0,0,23.49,313c0,136.52,110.66,247.19,247.18,247.19A245.77,245.77,0,0,0,391,529c.61-.33,1.23-.68,1.83-1l1.82-1a247,247,0,0,0,23.14-15.24l1.5-1.12-44.75-50.39L373,461.23a179,179,0,0,1-44.95,22.55c-.75.26-1.51.51-2.27.75s-1.53.49-2.31.72a178.37,178.37,0,0,1-30,6.45,180.12,180.12,0,0,1-165.13-289,177.89,177.89,0,0,1,14.47-16.45L110.69,150l41.82,27.09a180.09,180.09,0,0,1,240.4,268.17l44.55,50.17A246.51,246.51,0,0,0,517.86,313C517.86,176.51,407.19,65.85,270.67,65.85ZM149.61,179.69l-17.91-11.6,13.76,15.5C146.83,182.26,148.21,181,149.61,179.69Z"/><polygon class="cls-2" points="491.5 591.85 392.85 527.95 325.81 484.53 187.39 394.87 234.91 376.51 283.59 357.71 294.01 353.69 144.13 184.89 121.19 159.06 151.05 178.4 425.3 356.05 335.56 390.71 329.1 393.2 318.68 397.23 374.56 460.16 419.31 510.55 491.5 591.85"/><path class="cls-1" d="M768,387.49q0,57.22-25.27,82.6t-82.5,25.37q-54.93,0-81.35-26.42T552.2,387.49V226.61a5.58,5.58,0,0,1,5.59-5.58h44.59a5.58,5.58,0,0,1,5.59,5.58V389.37q0,28.61,12.95,43t39.26,14.41q28,0,39.89-13.26T712,389.37V226.61a5.58,5.58,0,0,1,5.58-5.58h44.81a5.58,5.58,0,0,1,5.58,5.58Z"/><path class="cls-1" d="M818.08,489.88V226.61a5.58,5.58,0,0,1,5.58-5.58h44.6a5.58,5.58,0,0,1,5.58,5.58V489.88a5.58,5.58,0,0,1-5.58,5.58h-44.6A5.58,5.58,0,0,1,818.08,489.88Z"/><path class="cls-1" d="M1145.88,394.59a5.59,5.59,0,0,1,5.53,6.44q-6.37,41.85-35.4,67.18-31.23,27.26-79.26,27.25-56.38,0-89.6-37.59T913.94,356.16q0-65.58,33.21-104t89.6-38.43q47.41,0,78.74,25.79,29,23.84,35.78,63.09a5.59,5.59,0,0,1-5.5,6.56H1101a5.6,5.6,0,0,1-5.47-4.5,49.43,49.43,0,0,0-17.85-29.75q-15.89-12.74-40.52-12.74-31.13,0-48.67,24.75T971,355.74q0,42.83,17.54,67T1037.17,447q24.64,0,40.52-14.1,14.31-12.72,17.93-33.69a5.57,5.57,0,0,1,5.5-4.63Z"/><path class="cls-1" d="M1198.82,489.88V226.61a5.58,5.58,0,0,1,5.59-5.58H1249a5.58,5.58,0,0,1,5.59,5.58v90.84a5.58,5.58,0,0,0,9.68,3.8l91-98.43a5.58,5.58,0,0,1,4.1-1.79h56.09a5.59,5.59,0,0,1,4.12,9.36l-95.09,103.83a5.58,5.58,0,0,0-.41,7l104.79,145.35a5.59,5.59,0,0,1-4.53,8.85h-59.15a5.58,5.58,0,0,1-4.69-2.56l-75-116.44a5.58,5.58,0,0,0-8.69-.88l-20.66,21.14a5.57,5.57,0,0,0-1.59,3.9v89.26a5.58,5.58,0,0,1-5.59,5.58h-44.59A5.58,5.58,0,0,1,1198.82,489.88Z"/><path class="cls-1" d="M1613.31,301.23a5.84,5.84,0,0,1-5.51-4.72,39.24,39.24,0,0,0-16.12-25.67q-15.24-11.18-39.68-11.17-21.32,0-33.31,9.39t-12,26.11q0,11.91,12.53,18.59,12.32,6.48,52.42,15.45,58.48,13,78.11,30.08,19.63,16.92,19.64,54.3,0,37.61-29.66,59.74t-80.2,22.13q-50.76,0-79.27-23.49-26.46-21.81-30-60.63a5.61,5.61,0,0,1,5.57-6.1h42.56a5.75,5.75,0,0,1,5.54,5q2.19,17.71,15.06,27.82,14.61,11.49,40.52,11.49,26.73,0,41.77-8.67t15-23.92q0-15-10.87-22.13Q1595,387.69,1560.35,380q-63.49-14.21-85-30.71-21.3-16.29-21.31-51,0-38.83,28.2-61.71t76.23-22.87q44.91,0,73,23.7,25.83,21.81,30.56,57.48a5.6,5.6,0,0,1-5.54,6.33Z"/><path class="cls-1" d="M1769.42,489.88V274a5.58,5.58,0,0,0-5.59-5.58h-69.66a5.58,5.58,0,0,1-5.58-5.59V226.61a5.58,5.58,0,0,1,5.58-5.58h206a5.58,5.58,0,0,1,5.58,5.58v36.24a5.58,5.58,0,0,1-5.58,5.59h-69.45a5.58,5.58,0,0,0-5.59,5.58V489.88a5.58,5.58,0,0,1-5.58,5.58H1775A5.58,5.58,0,0,1,1769.42,489.88Z"/><path class="cls-1" d="M2008.68,386.42l-87.79-157.08a5.59,5.59,0,0,1,4.87-8.31h53.38a5.59,5.59,0,0,1,5,3.17L2033,326.09a5.58,5.58,0,0,0,10.13-.13l45.6-101.63a5.57,5.57,0,0,1,5.09-3.3h50.36a5.58,5.58,0,0,1,4.93,8.21l-83.3,156.18a5.49,5.49,0,0,0-.66,2.63V489.88a5.58,5.58,0,0,1-5.59,5.58H2015a5.58,5.58,0,0,1-5.59-5.58V389.15A5.59,5.59,0,0,0,2008.68,386.42Z"/></svg>