<?xml version="1.0" encoding="UTF-8"?><svg id="Layer_1" xmlns="http://www.w3.org/2000/svg" viewBox="0 0 661.79 661.79"><defs><style>.cls-1{fill:#1a5f7a;isolation:isolate;}.cls-2{fill:#cbd12e;}</style></defs><path class="cls-1" d="M330.89,24.46c-70.93,0-135.87,25.64-186.06,68.15-11.6,9.82-22.41,20.55-32.32,32.07-43.39,50.42-69.63,116.03-69.63,187.78,0,159.06,128.94,288,288,288,40.41,0,78.87-8.32,113.77-23.35,9.07-3.9,17.89-8.25,26.45-13.04,.72-.39,1.43-.8,2.14-1.2,.71-.41,1.42-.81,2.12-1.22,9.33-5.43,18.33-11.35,26.96-17.75,.59-.43,1.16-.87,1.74-1.3l-52.13-58.72c-.59,.42-1.19,.84-1.79,1.25-15.98,11.07-33.58,19.97-52.37,26.27-.88,.3-1.76,.59-2.64,.88-.89,.29-1.79,.57-2.69,.84-11.28,3.47-22.97,6-34.98,7.52-8.7,1.1-17.57,1.66-26.57,1.66-115.89,0-209.84-93.94-209.84-209.84,0-48.47,16.42-93.08,44.01-128.6,5.22-6.73,10.85-13.13,16.86-19.16l-37.43-42.16,48.73,31.57c6.76-5.89,13.88-11.34,21.36-16.32,33.29-22.22,73.29-35.16,116.31-35.16,115.89,0,209.84,93.94,209.84,209.84,0,11.84-.98,23.44-2.86,34.74-2.21,13.28-5.68,26.15-10.27,38.46-11.58,31.13-30.36,58.77-54.29,80.9l51.91,58.46c57.57-52.65,93.67-128.39,93.67-212.56,0-159.06-128.94-288-288-288ZM189.85,157.11l-20.87-13.52,16.03,18.06c1.59-1.54,3.2-3.05,4.84-4.54Z"/><polygon class="cls-2" points="588.19 637.33 473.25 562.87 395.14 512.28 233.86 407.81 289.23 386.43 345.95 364.53 358.09 359.84 183.46 163.16 156.73 133.07 191.52 155.6 511.05 362.59 406.5 402.96 398.97 405.87 386.83 410.56 451.94 483.88 504.07 542.6 588.19 637.33"/></svg>